<?xml version="1.0" encoding="UTF-8" standalone="no"?>
<svg
   xmlns:dc="http://purl.org/dc/elements/1.1/"
   xmlns:cc="http://creativecommons.org/ns#"
   xmlns:rdf="http://www.w3.org/1999/02/22-rdf-syntax-ns#"
   xmlns:svg="http://www.w3.org/2000/svg"
   xmlns="http://www.w3.org/2000/svg"
   xmlns:sodipodi="http://sodipodi.sourceforge.net/DTD/sodipodi-0.dtd"
   xmlns:inkscape="http://www.inkscape.org/namespaces/inkscape"
   inkscape:export-ydpi="96"
   inkscape:export-xdpi="96"
   inkscape:export-filename="\\wsl$\Debian\root\_DEV\art.build\fav_trans.png"
   width="511.99997"
   height="511.99997"
   viewBox="0 0 135.46666 135.46665"
   version="1.1"
   id="svg8"
   inkscape:version="1.0 (4035a4fb49, 2020-05-01)"
   sodipodi:docname="art.build.svg">
  <defs
     id="defs2">
    <inkscape:path-effect
       overflow_perspective="true"
       vertical_mirror="true"
       horizontal_mirror="false"
       deform_type="perspective"
       lpeversion="1"
       is_visible="true"
       id="path-effect899"
       down_right_point="162.31237,122.47079"
       down_left_point="32.665122,123.22674"
       up_right_point="162.73743,-33.205415"
       up_left_point="32.665122,26.45942"
       effect="perspective-envelope" />
    <inkscape:path-effect
       effect="perspective-envelope"
       up_left_point="32.665122,26.45942"
       up_right_point="162.73743,-33.205415"
       down_left_point="32.665122,123.22674"
       down_right_point="162.31237,122.47079"
       id="path-effect927"
       is_visible="true"
       lpeversion="1"
       deform_type="perspective"
       horizontal_mirror="false"
       vertical_mirror="true"
       overflow_perspective="true" />
    <rect
       x="30.105596"
       y="39.177024"
       width="217.86547"
       height="194.43095"
       id="rect904" />
    <rect
       x="23.680001"
       y="89.06988"
       width="146.84375"
       height="85.800593"
       id="rect898" />
    <inkscape:path-effect
       effect="perspective-envelope"
       up_left_point="41.831064,48.955858"
       up_right_point="153.20168,57.393639"
       down_left_point="40.709206,162.59902"
       down_right_point="152.72496,105.48433"
       id="path-effect882"
       is_visible="true"
       lpeversion="1"
       deform_type="perspective"
       horizontal_mirror="false"
       vertical_mirror="false"
       overflow_perspective="false" />
    <inkscape:path-effect
       effect="vonkoch"
       id="path-effect880"
       is_visible="true"
       lpeversion="1"
       ref_path="M 40.711363,103.39978 H 155.43252"
       generator="m 40.711363,129.66337 h 38.240386 m 38.240381,0 h 38.24039"
       similar_only="true"
       nbgenerations="1"
       drawall="true"
       maxComplexity="1000" />
    <inkscape:path-effect
       effect="mirror_symmetry"
       start_point="144.12199,76.835055"
       end_point="144.12199,129.39609"
       center_point="144.12199,103.11557"
       id="path-effect878"
       is_visible="true"
       lpeversion="1"
       mode="horizontal"
       discard_orig_path="false"
       fuse_paths="false"
       oposite_fuse="false"
       split_items="false" />
    <inkscape:path-effect
       effect="rough_hatches"
       id="path-effect876"
       is_visible="true"
       lpeversion="1"
       direction="97.344207,98.115573 , 23.388892,0"
       dist_rdm="75;1"
       growth="0"
       do_bend="true"
       bender="97.344207,103.11557 , 5,0"
       bottom_edge_variation="5.2561035;1"
       top_edge_variation="5.2561035;1"
       bottom_tgt_variation="0;1"
       top_tgt_variation="0;1"
       scale_bf="1"
       scale_bb="1"
       scale_tf="1"
       scale_tb="1"
       top_smth_variation="0;1"
       bottom_smth_variation="0;1"
       fat_output="true"
       stroke_width_top="1"
       stroke_width_bottom="1"
       front_thickness="1"
       back_thickness="0.25" />
  </defs>
  <sodipodi:namedview
     id="base"
     pagecolor="#ffffff"
     bordercolor="#666666"
     borderopacity="1.0"
     inkscape:pageopacity="0.0"
     inkscape:pageshadow="2"
     inkscape:zoom="1.4"
     inkscape:cx="220.29907"
     inkscape:cy="227.44294"
     inkscape:document-units="px"
     inkscape:current-layer="layer1"
     inkscape:document-rotation="0"
     showgrid="false"
     showguides="true"
     inkscape:lockguides="false"
     units="px"
     fit-margin-top="0"
     fit-margin-left="0"
     fit-margin-right="0"
     fit-margin-bottom="0"
     inkscape:showpageshadow="false"
     inkscape:window-width="1920"
     inkscape:window-height="1057"
     inkscape:window-x="-8"
     inkscape:window-y="-8"
     inkscape:window-maximized="1" />
  <metadata
     id="metadata5">
    <rdf:RDF>
      <cc:Work
         rdf:about="">
        <dc:format>image/svg+xml</dc:format>
        <dc:type
           rdf:resource="http://purl.org/dc/dcmitype/StillImage" />
        <dc:title></dc:title>
      </cc:Work>
    </rdf:RDF>
  </metadata>
  <g
     inkscape:label="Layer 1"
     inkscape:groupmode="layer"
     id="layer1"
     transform="translate(-30.105596,-39.177024)">
    <path
       inkscape:label="red"
       inkscape:export-ydpi="96"
       inkscape:export-xdpi="96"
       d="M 30.105596,39.177024 H 165.57226 V 174.64369 H 30.105596 Z"
       style="display:none;fill:#f5431f;fill-opacity:1;fill-rule:evenodd;stroke-width:0.261491;stroke-linejoin:bevel;stroke-opacity:0.818548;paint-order:fill markers stroke"
       id="path901" />
    <path
       inkscape:label="green"
       id="rect833"
       style="display:none;fill:#24ee1f;fill-opacity:1;fill-rule:evenodd;stroke-width:0.261491;stroke-linejoin:bevel;stroke-opacity:0.818548;paint-order:fill markers stroke"
       d="M 30.105596,39.177024 H 165.57226 V 174.64369 H 30.105596 Z"
       inkscape:export-xdpi="96"
       inkscape:export-ydpi="96" />
    <g
       inkscape:label="gr"
       aria-label="art. build"
       id="text902"
       style="font-weight:bold;font-size:67.7333px;font-family:'Fira Code';-inkscape-font-specification:'Fira Code Bold';white-space:pre;display:inline;fill:#3c4338;fill-rule:evenodd;stroke:#24ee1f;stroke-width:0.6;stroke-linejoin:round;paint-order:fill markers stroke"
       transform="matrix(1.0232312,0,0,1.0232312,-34.694797,47.034329)"
       inkscape:path-effect="#path-effect927">
      <path
         d="m 87.157379,48.655986 c 0.0023,2.029538 0.123636,3.500819 0.364065,4.413971 0.255379,0.91311 0.660127,1.606368 1.214241,2.079798 l -1.446987,10.547712 c -1.406399,-0.30418 -2.596388,-0.997053 -3.569992,-2.07866 -0.958741,-1.11547 -1.716283,-2.788798 -2.272634,-5.020127 -0.909407,2.467971 -2.073827,4.31029 -3.493278,5.527139 -1.419408,1.182973 -2.869495,1.774433 -4.350325,1.774433 -2.453091,0 -4.41507,-1.571633 -5.886117,-4.715283 -1.456383,-3.177973 -2.188849,-7.252629 -2.197221,-12.224538 -0.0099,-5.852938 0.99291,-10.370726 3.008546,-13.552424 2.030939,-3.182224 4.888036,-4.773532 8.571039,-4.773532 h 3.211399 l -0.0026,-2.031649 c -0.0037,-2.810799 -0.410666,-4.893765 -1.221078,-6.248659 -0.795495,-1.35499 -1.964504,-2.032521 -3.506986,-2.032521 -0.763754,0 -1.74428,0.254077 -2.941556,0.762221 -1.197295,0.474255 -2.394218,1.168679 -3.590747,2.083249 L 67.389969,12.494444 c 1.540689,-1.321789 3.141901,-2.321663 4.803602,-2.9995739 1.676739,-0.6779345 3.174257,-1.0169107 4.492511,-1.0169107 3.550296,0 6.173849,1.6439786 7.870443,4.9315166 1.711244,3.253094 2.570219,7.962333 2.577141,14.12665 z m -11.125473,5.78362 c 0.763078,0 1.562867,-0.507266 2.3994,-1.521838 0.836531,-1.048446 1.470543,-2.519749 1.902034,-4.414006 l -0.01135,-8.729516 h -1.751257 c -1.975777,0 -3.42668,0.693769 -4.352657,2.081232 -0.92596,1.353526 -1.386945,3.349804 -1.383002,5.988632 0.0031,2.063449 0.282332,3.686991 0.837723,4.870738 0.57027,1.149856 1.35663,1.724758 2.359105,1.724758 z"
         style="fill:#24ee1f;fill-opacity:1;stroke:#24ee1f;stroke-opacity:1"
         id="path908"
         inkscape:original-d="m 65.123584,65.107619 q 0,2.031999 0.541867,2.946398 0.575733,0.9144 1.828799,1.388533 l -2.201332,7.044263 q -3.183465,-0.3048 -5.384798,-1.388533 -2.167465,-1.117599 -3.420531,-3.352798 -2.065866,2.472266 -5.283198,3.691465 -3.217331,1.185333 -6.57013,1.185333 -5.55413,0 -8.873062,-3.149599 -3.285065,-3.183465 -3.285065,-8.161862 0,-5.858931 4.571998,-9.042396 4.605864,-3.183465 12.93706,-3.183465 h 4.842931 v -1.354666 q 0,-2.810932 -1.828799,-4.165598 -1.794933,-1.354666 -5.283197,-1.354666 -1.7272,0 -4.436532,0.508 -2.709332,0.474133 -5.418663,1.388533 l -2.472266,-7.111997 q 3.488265,-1.320799 7.247463,-1.998132 3.793065,-0.677333 6.77333,-0.677333 8.026396,0 11.853327,3.285065 3.860798,3.251198 3.860798,9.414929 z m -16.797858,3.860798 q 1.727199,0 3.623732,-1.016 1.896532,-1.049866 2.878665,-2.946398 v -5.825064 h -2.641599 q -4.470397,0 -6.57013,1.388533 -2.099732,1.354666 -2.099732,3.996264 0,2.065866 1.253066,3.251199 1.286933,1.151466 3.555998,1.151466 z" />
      <path
         d="m 94.247626,64.176519 -0.0101,-10.751458 h 3.14217 l -0.02788,-32.493636 h -3.144818 l -0.01003,-10.673907 h 8.560763 l 1.31152,12.14746 c 0.85049,-4.641223 1.9341,-8.097458 3.25079,-10.368066 1.33183,-2.270875 2.95653,-3.4064125 4.87398,-3.4064125 0.80892,0 1.52803,0.1525389 2.15732,0.4576131 0.62927,0.2711726 1.22112,0.6609769 1.77556,1.1694054 l -2.15138,13.265251 c -0.43437,-0.270974 -0.86872,-0.474207 -1.30305,-0.609697 -0.43432,-0.13549 -0.91354,-0.203236 -1.43765,-0.203236 -1.55736,0 -2.92672,1.439546 -4.10793,4.318316 -1.16606,2.87834 -2.05448,6.534906 -2.66528,10.969255 l 0.0104,15.427654 h 4.71326 l 0.006,10.751458 z m 16.116454,-31.358261 -0.008,-15.749089 1.0525,-6.811651 h 4.71853 l -1.31653,22.56074 z"
         style="fill:#24ee1f;fill-opacity:1;stroke:#24ee1f;stroke-opacity:1"
         id="path910"
         inkscape:original-d="m 75.798988,75.470814 v -7.17973 h 4.741331 V 46.616428 h -4.741331 v -7.111996 h 12.903193 l 1.964266,8.094129 q 1.930399,-4.639731 4.910664,-6.908797 3.014132,-2.269065 7.349059,-2.269065 1.8288,0 3.2512,0.3048 1.4224,0.270933 2.67547,0.778933 l -3.2512,8.839195 q -0.98213,-0.270933 -1.96427,-0.4064 -0.98213,-0.135466 -2.16746,-0.135466 -3.522133,0 -6.197599,2.878665 -2.641598,2.878665 -4.030131,7.315196 v 10.295462 h 7.111996 v 7.17973 z M 100.14911,54.541224 V 44.042563 l 1.59173,-4.538131 h 7.112 l -1.99813,15.036792 z" />
      <path
         d="m 135.49282,67.370399 -0.006,42.837691 h 6.05097 l -0.003,10.92202 h -19.87293 l -0.002,-10.92202 h 6.74572 l -0.002,-31.891351 h -6.52701 l -0.002,-10.94634 z M 131.2081,39.16509 c 1.22739,0 2.2302,0.863004 3.00836,2.588896 0.7781,1.725738 1.16696,3.874236 1.16663,6.445351 -3.3e-4,2.570773 -0.38964,4.735368 -1.16788,6.493923 -0.77817,1.724581 -1.78064,2.586813 -3.00746,2.586813 -1.24178,0 -2.25918,-0.862232 -3.05225,-2.586813 -0.77817,-1.758555 -1.1674,-3.92315 -1.16763,-6.493923 -2.3e-4,-2.571115 0.3887,-4.719613 1.16686,-6.445351 0.7932,-1.725892 1.811,-2.588896 3.05337,-2.588896 z"
         style="fill:#f5431f;fill-opacity:1;stroke:#f5431f;stroke-opacity:1"
         id="path920"
         inkscape:original-d="m 138.0533,77.60443 v 28.65119 h 9.14399 v 7.31519 h -30.03971 v -7.31519 h 10.19386 V 84.919627 h -9.8552 V 77.60443 Z m -6.46853,-18.829857 q 2.77706,0 4.53813,1.727199 1.76107,1.727199 1.76107,4.301065 0,2.573865 -1.76107,4.334931 -1.76107,1.727199 -4.53813,1.727199 -2.81093,0 -4.60587,-1.727199 -1.76106,-1.761066 -1.76106,-4.334931 0,-2.573866 1.76106,-4.301065 1.79494,-1.727199 4.60587,-1.727199 z" />
      <path
         d="m 142.38262,61.032844 c -0.92789,1.352181 -2.05013,2.50146 -3.36671,3.447875 -1.31652,0.946367 -2.79744,1.419533 -4.4428,1.419533 -3.11124,0 -5.4223,-1.791333 -6.93337,-5.374499 -1.51137,-3.617646 -2.26756,-8.521145 -2.26838,-14.711479 l -0.003,-24.476341 h -5.00919 l -0.003,-11.080415 h 5.01063 l -0.002,-11.6972459 7.10251,-1.9332696 -7e-4,13.6305155 h 7.68446 l -0.69912,11.080415 -6.98592,0 -0.001,24.476341 c -1.3e-4,2.672574 0.26912,4.583745 0.80773,5.733739 0.53859,1.149925 1.3989,1.724862 2.58095,1.724862 0.83792,0 1.60106,-0.219827 2.28944,-0.659488 0.70337,-0.473493 1.33196,-1.065375 1.88578,-1.775656 z"
         style="fill:#24ee1f;fill-opacity:1;stroke:#24ee1f;stroke-opacity:1"
         id="path912"
         inkscape:original-d="m 148.45036,73.371081 q -2.09973,1.354666 -5.08,2.302933 -2.98026,0.948266 -6.70559,0.948266 -7.04427,0 -10.4648,-3.589865 -3.42053,-3.623732 -3.42053,-9.821329 V 46.887361 h -7.55226 v -7.382929 h 7.55226 v -7.78933 L 133.4813,30.42817 v 9.076262 h 11.58239 l -1.04986,7.382929 H 133.4813 v 16.323725 q 0,2.675466 1.2192,3.826932 1.2192,1.151466 3.89466,1.151466 1.89654,0 3.4544,-0.440266 1.59174,-0.474134 2.8448,-1.185333 z" />
      <path
         d="m 74.21847,72.895023 c 0.744547,-2.229933 1.639396,-4.003927 2.684535,-5.321857 1.060169,-1.318021 2.196079,-1.977066 3.407676,-1.977066 2.049245,0 3.718466,1.165986 5.007545,3.497746 1.303879,2.331477 2.26471,5.625476 2.88251,9.881501 0.617663,4.255086 0.929576,9.302561 0.935841,15.141801 0.0059,5.533829 -0.354862,10.475812 -1.082271,14.826412 -0.712344,4.3159 -1.776611,7.72073 -3.192783,10.21498 -1.416031,2.46023 -3.154547,3.69022 -5.215685,3.69022 -2.494275,0 -4.461476,-2.19045 -5.901847,-6.57212 l -0.261706,4.85347 h -6.273308 l -0.123498,-75.163564 7.091255,-1.674763 z m 3.55195,38.324627 c 1.254985,0 2.246814,-1.29818 2.975561,-3.89479 0.728802,-2.6307 1.089429,-6.96539 1.081804,-13.005227 -0.0056,-4.455167 -0.166946,-7.898502 -0.483993,-10.329462 -0.302178,-2.465037 -0.737987,-4.170486 -1.307419,-5.116146 -0.554551,-0.979484 -1.205672,-1.469244 -1.953342,-1.469244 -0.792531,0 -1.502039,0.557312 -2.128497,1.671888 -0.626421,1.114513 -1.199889,2.634199 -1.720392,4.558962 l 0.03309,22.677449 c 0.450561,1.58508 0.952845,2.79909 1.506864,3.6421 0.553994,0.84299 1.219429,1.26447 1.996324,1.26447 z"
         style="fill:#f5431f;fill-opacity:1;stroke:#f5431f;stroke-opacity:1"
         id="path916"
         inkscape:original-d="m 45.548661,81.295895 q 1.693332,-2.235199 4.063998,-3.555998 2.404532,-1.3208 5.147731,-1.3208 4.639731,0 7.552263,2.336799 2.946398,2.336799 4.334931,6.603997 1.388532,4.267198 1.388532,10.126128 0,5.554129 -1.659465,9.922929 -1.6256,4.33493 -4.842931,6.84106 -3.217332,2.47227 -7.89093,2.47227 -5.65573,0 -8.906929,-4.40267 l -0.406399,3.2512 H 34.8468 V 63.312704 l 10.701861,-1.117599 z m 5.283197,25.637055 q 2.844799,0 4.504265,-2.60773 1.659466,-2.6416 1.659466,-8.703732 0,-4.470398 -0.7112,-6.908797 -0.677333,-2.472265 -1.964266,-3.420531 -1.253066,-0.982133 -2.946398,-0.982133 -1.794933,0 -3.217332,1.117599 -1.422399,1.1176 -2.607732,3.047999 v 15.172255 q 1.015999,1.59174 2.269066,2.4384 1.253066,0.84667 3.014131,0.84667 z" />
      <path
         d="m 101.11603,67.370399 0.028,36.817801 c 0.002,2.59705 0.21251,4.38442 0.6316,5.36235 0.434,0.97787 1.03198,1.46679 1.79394,1.46679 0.73208,0 1.46381,-0.52264 2.19523,-1.56795 0.73145,-1.04538 1.34319,-2.46179 1.83521,-4.2493 l -0.0225,-37.829691 h 7.08977 l 0.022,53.759711 h -6.18369 l -0.31729,-6.26929 c -0.80513,2.62931 -1.86447,4.61791 -3.17804,5.96599 -1.31348,1.34799 -2.6871,2.02195 -4.12094,2.02195 -2.30011,0 -4.011565,-1.49959 -5.134497,-4.49912 -1.123138,-3.03372 -1.687179,-7.09628 -1.691992,-12.18833 l -0.03666,-38.790911 z"
         style="fill:#f5431f;fill-opacity:1;stroke:#f5431f;stroke-opacity:1"
         id="path918"
         inkscape:original-d="m 86.162183,77.60443 v 24.62105 q 0,2.60774 0.948266,3.58987 0.982133,0.98213 2.709332,0.98213 1.659466,0 3.318931,-1.04986 1.659466,-1.04987 2.777066,-2.8448 V 77.60443 h 10.701862 v 35.96638 h -9.347196 l -0.474133,-4.19946 q -1.8288,2.6416 -4.809065,3.99626 -2.980265,1.35467 -6.231463,1.35467 -5.215464,0 -7.755463,-3.01413 -2.539999,-3.048 -2.539999,-8.16187 V 77.60443 Z" />
      <path
         d="m 160.28356,45.966546 -0.045,58.272254 c -0.002,2.1586 0.26609,3.70995 0.80323,4.65418 0.55209,0.91046 1.30623,1.36568 2.26243,1.36568 0.61257,0 1.20286,-0.15174 1.77088,-0.45522 0.56806,-0.33719 1.09882,-0.72499 1.59229,-1.16337 l 1.69281,10.67014 c -0.80752,0.94368 -1.77918,1.76936 -2.915,2.47706 -1.13577,0.70767 -2.4579,1.06149 -3.96641,1.06149 -2.86767,0 -4.97236,-1.85344 -6.31427,-5.56087 -1.34215,-3.74186 -2.01147,-8.74899 -2.00777,-15.02239 l 0.0267,-45.34046 h -7.02435 l 0.004,-10.958494 z"
         style="fill:#f5431f;fill-opacity:1;stroke:#f5431f;stroke-opacity:1"
         id="path922"
         inkscape:original-d="m 175.44948,63.312704 v 38.946646 q 0,2.16747 1.2192,3.11573 1.25307,0.9144 3.42054,0.9144 1.38853,0 2.67546,-0.3048 1.28693,-0.33866 2.40453,-0.77893 l 2.57387,7.14586 q -1.8288,0.94827 -4.40267,1.65947 -2.57386,0.7112 -5.99439,0.7112 -6.5024,0 -9.5504,-3.72533 -3.048,-3.7592 -3.048,-10.0584 V 70.6279 h -10.60026 v -7.315196 z" />
      <path
         d="m 153.16235,54.591783 c 0.001,-2.062948 0.22677,-3.940083 0.67671,-5.631352 0.45,-1.725248 1.05695,-3.095408 1.82086,-4.110404 0.76398,-1.048885 1.60246,-1.573349 2.51543,-1.573349 0.92793,0 1.76566,0.524464 2.51316,1.573349 0.76245,1.014996 1.36744,2.385156 1.81496,4.110404 0.44751,1.691269 0.67038,3.568404 0.66863,5.631352 -0.002,2.028913 -0.22773,3.905467 -0.67798,5.629708 -0.45021,1.724086 -1.05717,3.093104 -1.82087,4.107129 -0.74872,1.047769 -1.58676,1.571632 -2.51415,1.571632 -0.91243,0 -1.74972,-0.523863 -2.5119,-1.571632 -0.76224,-1.014025 -1.36722,-2.383043 -1.81496,-4.107129 -0.44778,-1.724241 -0.67109,-3.600795 -0.66989,-5.629708 z"
         style="fill:#24ee1f;fill-opacity:1;stroke:#24ee1f;stroke-opacity:1"
         id="path914"
         inkscape:original-d="m 164.71376,69.070017 q 0,-2.065866 1.016,-3.759198 1.016,-1.727199 2.74319,-2.743199 1.7272,-1.049866 3.79307,-1.049866 2.09973,0 3.79306,1.049866 1.7272,1.016 2.7432,2.743199 1.016,1.693332 1.016,3.759198 0,2.031999 -1.016,3.759198 -1.016,1.727199 -2.7432,2.743199 -1.69333,1.049866 -3.79306,1.049866 -2.06587,0 -3.79307,-1.049866 -1.72719,-1.016 -2.74319,-2.743199 -1.016,-1.727199 -1.016,-3.759198 z" />
      <path
         d="m 188.32906,44.291783 7.09118,1.674763 -0.12656,75.163564 h -6.2733 l -0.34953,-5.91533 c -0.66043,2.08996 -1.53696,3.89321 -2.62956,5.40983 -1.09248,1.4828 -2.41534,2.22415 -3.96866,2.22415 -1.97153,0 -3.6055,-1.19629 -4.90206,-3.5891 -1.28177,-2.39312 -2.24142,-5.73049 -2.87894,-10.0126 -0.62268,-4.3168 -0.93087,-9.359915 -0.92444,-15.129912 0.006,-5.535421 0.39288,-10.447751 1.16029,-14.736514 0.76757,-4.289717 1.86324,-7.651225 3.28701,-10.084039 1.42399,-2.466918 3.11581,-3.700495 5.0753,-3.700495 1.06202,0 2.04865,0.422467 2.95987,1.267374 0.91117,0.844868 1.7245,2.078309 2.43999,3.700249 z m -3.54862,33.011667 c -1.22618,0 -2.21489,1.317265 -2.96605,3.951524 -0.75101,2.600134 -1.13042,6.921659 -1.13829,12.963416 -0.006,4.420422 0.14667,7.86157 0.45725,10.32398 0.31058,2.42837 0.74163,4.13142 1.29314,5.10933 0.55148,0.97788 1.18578,1.4668 1.90291,1.4668 0.79184,0 1.50977,-0.55635 2.15383,-1.66911 0.65905,-1.11282 1.24402,-2.63041 1.75493,-4.55286 l 0.0348,-23.185663 c -0.49134,-1.384598 -1.01308,-2.465328 -1.56519,-3.242141 -0.55214,-0.776843 -1.19458,-1.165276 -1.9273,-1.165276 z"
         style="fill:#f5431f;fill-opacity:1;stroke:#f5431f;stroke-opacity:1"
         id="path924"
         inkscape:original-d="m 217.75634,62.195105 10.70186,1.117599 v 50.258106 h -9.48266 l -0.54186,-3.9624 q -1.49014,2.09974 -3.9624,3.62374 -2.47227,1.49013 -5.9944,1.49013 -4.4704,0 -7.4168,-2.40453 -2.91253,-2.40454 -4.36879,-6.7056 -1.4224,-4.33493 -1.4224,-10.126129 0,-5.55413 1.7272,-9.855195 1.7272,-4.301064 4.94453,-6.739463 3.21733,-2.472266 7.65386,-2.472266 2.40453,0 4.4704,0.846667 2.06586,0.846666 3.69146,2.472265 z m -5.28319,22.047189 q -2.77707,0 -4.4704,2.641598 -1.69334,2.607732 -1.69334,8.669862 0,4.436532 0.7112,6.908796 0.7112,2.4384 1.96427,3.42053 1.25307,0.98214 2.87867,0.98214 1.79493,0 3.25119,-1.1176 1.49014,-1.1176 2.6416,-3.048 V 87.188692 q -1.1176,-1.388533 -2.37066,-2.167466 -1.25307,-0.778932 -2.91253,-0.778932 z" />
    </g>
    <g
       inkscape:label="rg"
       inkscape:path-effect="#path-effect899"
       transform="matrix(1.0232312,0,0,1.0232312,-36.62858,45.177896)"
       style="font-weight:bold;font-size:67.7333px;font-family:'Fira Code';-inkscape-font-specification:'Fira Code Bold';white-space:pre;display:inline;opacity:1;fill:#3c4338;fill-rule:evenodd;stroke:#24ee1f;stroke-width:0.6;stroke-linejoin:round;paint-order:fill markers stroke"
       id="g897"
       aria-label="art. build">
      <path
         inkscape:original-d="m 65.123584,64.578452 q 0,2.031999 0.541867,2.946398 0.575733,0.9144 1.828799,1.388533 l -2.201332,7.044263 q -3.183465,-0.3048 -5.384798,-1.388533 -2.167465,-1.117599 -3.420531,-3.352798 -2.065866,2.472266 -5.283198,3.691465 -3.217331,1.185333 -6.57013,1.185333 -5.55413,0 -8.873062,-3.149599 -3.285065,-3.183465 -3.285065,-8.161862 0,-5.858931 4.571998,-9.042396 4.605864,-3.183465 12.93706,-3.183465 h 4.842931 v -1.354666 q 0,-2.810932 -1.828799,-4.165598 -1.794933,-1.354666 -5.283197,-1.354666 -1.7272,0 -4.436532,0.508 -2.709332,0.474133 -5.418663,1.388533 l -2.472266,-7.111997 q 3.488265,-1.320799 7.247463,-1.998132 3.793065,-0.677333 6.77333,-0.677333 8.026396,0 11.853327,3.285065 3.860798,3.251198 3.860798,9.414929 z M 48.325726,68.43925 q 1.727199,0 3.623732,-1.016 1.896532,-1.049866 2.878665,-2.946398 v -5.825064 h -2.641599 q -4.470397,0 -6.57013,1.388533 -2.099732,1.354666 -2.099732,3.996264 0,2.065866 1.253066,3.251199 1.286933,1.151466 3.555998,1.151466 z"
         id="path879"
         style="fill:#f5431f;stroke:#f5431f"
         d="m 87.157379,48.655988 c 0.0023,2.029538 0.123636,3.500819 0.364065,4.413971 0.255379,0.91311 0.660127,1.606368 1.214241,2.079798 L 87.288698,65.69747 c -1.406399,-0.30418 -2.596388,-0.997053 -3.569992,-2.078661 -0.958741,-1.11547 -1.716283,-2.788797 -2.272634,-5.020127 -0.909407,2.467971 -2.073827,4.310291 -3.493278,5.527139 -1.419408,1.182974 -2.869495,1.774434 -4.350324,1.774434 -2.453092,0 -4.415071,-1.571633 -5.886118,-4.715283 -1.456383,-3.177973 -2.188849,-7.25263 -2.197221,-12.22454 -0.0099,-5.852938 0.99291,-10.370725 3.008546,-13.552424 2.030939,-3.182224 4.888036,-4.773532 8.571039,-4.773532 h 3.211399 l -0.0026,-2.031649 c -0.0037,-2.810799 -0.410666,-4.893765 -1.221078,-6.248659 -0.795495,-1.35499 -1.964504,-2.032521 -3.506986,-2.032521 -0.763754,0 -1.74428,0.254077 -2.941555,0.762221 -1.197296,0.474255 -2.394219,1.168679 -3.590748,2.083249 L 67.389969,12.494445 c 1.540689,-1.321789 3.141901,-2.321664 4.803602,-2.9995744 1.676739,-0.6779346 3.174257,-1.0169108 4.492511,-1.0169108 3.550296,0 6.173849,1.6439792 7.870443,4.9315172 1.711244,3.253094 2.570219,7.962333 2.577141,14.12665 z m -11.125473,5.78362 c 0.763078,0 1.562867,-0.507266 2.3994,-1.521838 0.836531,-1.048447 1.470543,-2.51975 1.902034,-4.414006 l -0.01135,-8.729516 h -1.751257 c -1.975777,0 -3.42668,0.693769 -4.352657,2.081232 -0.92596,1.353526 -1.386945,3.349803 -1.383002,5.988632 0.0031,2.063449 0.282332,3.686991 0.837723,4.870738 0.57027,1.149856 1.35663,1.724758 2.359105,1.724758 z" />
      <path
         inkscape:original-d="m 75.798988,74.941647 v -7.17973 h 4.741331 V 46.087261 h -4.741331 v -7.111996 h 12.903193 l 1.964266,8.094129 q 1.930399,-4.639731 4.910664,-6.908797 3.014132,-2.269065 7.349059,-2.269065 1.8288,0 3.2512,0.3048 1.4224,0.270933 2.67547,0.778933 l -3.2512,8.839195 q -0.98213,-0.270933 -1.96427,-0.4064 -0.98213,-0.135466 -2.16746,-0.135466 -3.522133,0 -6.197599,2.878665 -2.641598,2.878665 -4.030131,7.315196 v 10.295462 h 7.111996 v 7.17973 z M 100.14911,54.012057 V 43.513396 l 1.59173,-4.538131 h 7.112 l -1.99813,15.036792 z"
         id="path881"
         style="fill:#f5431f;stroke:#f5431f"
         d="m 94.247626,64.176522 -0.0101,-10.751459 h 3.14217 l -0.02788,-32.493637 h -3.144818 l -0.01003,-10.673907 h 8.560763 l 1.31152,12.147459 c 0.85049,-4.641223 1.9341,-8.097457 3.25079,-10.368066 1.33183,-2.2708745 2.95653,-3.4064121 4.87398,-3.4064121 0.80892,0 1.52803,0.1525389 2.15732,0.4576131 0.62927,0.2711727 1.22112,0.660977 1.77556,1.169406 l -2.15138,13.265251 c -0.43437,-0.270974 -0.86872,-0.474207 -1.30305,-0.609697 -0.43432,-0.13549 -0.91354,-0.203236 -1.43765,-0.203236 -1.55736,0 -2.92672,1.439546 -4.10793,4.318316 -1.16606,2.87834 -2.05448,6.534906 -2.66528,10.969256 l 0.0104,15.427654 h 4.71326 l 0.006,10.751459 z m 16.116454,-31.358262 -0.008,-15.74909 1.0525,-6.811651 h 4.71853 l -1.31653,22.560741 z" />
      <path
         inkscape:original-d="m 138.0533,77.075263 v 28.651187 h 9.14399 v 7.31519 h -30.03971 v -7.31519 h 10.19386 V 84.39046 h -9.8552 v -7.315197 z m -6.46853,-18.829857 q 2.77706,0 4.53813,1.727199 1.76107,1.727199 1.76107,4.301065 0,2.573865 -1.76107,4.334931 -1.76107,1.727199 -4.53813,1.727199 -2.81093,0 -4.60587,-1.727199 -1.76106,-1.761066 -1.76106,-4.334931 0,-2.573866 1.76106,-4.301065 1.79494,-1.727199 4.60587,-1.727199 z"
         id="path883"
         style="fill:#24ee1f"
         d="m 135.49282,67.370401 -0.006,42.837689 h 6.05097 l -0.003,10.92202 h -19.87293 l -0.002,-10.92202 h 6.74572 l -0.002,-31.891348 h -6.52701 l -0.002,-10.946341 z m -4.28472,-28.20531 c 1.22739,0 2.2302,0.863004 3.00836,2.588897 0.7781,1.725738 1.16696,3.874235 1.16663,6.445351 -3.3e-4,2.570773 -0.38964,4.735368 -1.16788,6.493923 -0.77817,1.724581 -1.78064,2.586813 -3.00746,2.586813 -1.24178,0 -2.25918,-0.862232 -3.05225,-2.586813 -0.77817,-1.758555 -1.1674,-3.92315 -1.16763,-6.493923 -2.3e-4,-2.571116 0.3887,-4.719613 1.16686,-6.445351 0.7932,-1.725893 1.811,-2.588897 3.05337,-2.588897 z" />
      <path
         inkscape:original-d="m 148.45036,72.841914 q -2.09973,1.354666 -5.08,2.302933 -2.98026,0.948266 -6.70559,0.948266 -7.04427,0 -10.4648,-3.589865 -3.42053,-3.623732 -3.42053,-9.821329 V 46.358194 h -7.55226 v -7.382929 h 7.55226 v -7.78933 l 10.70186,-1.286932 v 9.076262 h 11.58239 l -1.04986,7.382929 H 133.4813 v 16.323725 q 0,2.675466 1.2192,3.826932 1.2192,1.151466 3.89466,1.151466 1.89654,0 3.4544,-0.440266 1.59174,-0.474134 2.8448,-1.185333 z"
         id="path885"
         style="fill:#f5431f;stroke:#f5431f"
         d="m 142.38262,61.032847 c -0.92789,1.35218 -2.05013,2.50146 -3.36671,3.447874 -1.31652,0.946367 -2.79744,1.419534 -4.4428,1.419534 -3.11124,0 -5.4223,-1.791334 -6.93337,-5.3745 -1.51137,-3.617645 -2.26756,-8.521145 -2.26838,-14.71148 l -0.003,-24.476341 h -5.00919 l -0.003,-11.080415 h 5.01063 l -0.002,-11.6972469 7.10251,-1.9332696 -7e-4,13.6305165 h 7.68446 l -0.69912,11.080415 h -6.98592 l -0.001,24.476341 c -1.3e-4,2.672575 0.26912,4.583746 0.80773,5.73374 0.53859,1.149925 1.3989,1.724862 2.58095,1.724862 0.83792,0 1.60106,-0.219827 2.28944,-0.659488 0.70337,-0.473493 1.33196,-1.065375 1.88578,-1.775656 z" />
      <path
         inkscape:original-d="m 45.548661,80.766728 q 1.693332,-2.235199 4.063998,-3.555998 2.404532,-1.3208 5.147731,-1.3208 4.639731,0 7.552263,2.336799 2.946398,2.336799 4.334931,6.603997 1.388532,4.267198 1.388532,10.126128 0,5.554126 -1.659465,9.922926 -1.6256,4.33493 -4.842931,6.84106 -3.217332,2.47227 -7.89093,2.47227 -5.65573,0 -8.906929,-4.40267 l -0.406399,3.2512 H 34.8468 V 62.783537 l 10.701861,-1.117599 z m 5.283197,25.637052 q 2.844799,0 4.504265,-2.60773 1.659466,-2.6416 1.659466,-8.703729 0,-4.470398 -0.7112,-6.908797 -0.677333,-2.472265 -1.964266,-3.420531 -1.253066,-0.982133 -2.946398,-0.982133 -1.794933,0 -3.217332,1.117599 -1.422399,1.1176 -2.607732,3.047999 v 15.172252 q 1.015999,1.59174 2.269066,2.4384 1.253066,0.84667 3.014131,0.84667 z"
         id="path887"
         style="fill:#24ee1f"
         d="m 74.21847,72.895026 c 0.744547,-2.229933 1.639396,-4.003928 2.684535,-5.321858 1.060169,-1.318021 2.196079,-1.977065 3.407676,-1.977065 2.049245,0 3.718466,1.165985 5.007545,3.497745 1.303879,2.331478 2.26471,5.625476 2.88251,9.881502 0.617663,4.255086 0.929576,9.302561 0.935841,15.141801 0.0059,5.533827 -0.354862,10.475809 -1.082271,14.826409 -0.712344,4.3159 -1.776611,7.72073 -3.192783,10.21498 -1.416031,2.46023 -3.154547,3.69022 -5.215685,3.69022 -2.494275,0 -4.461476,-2.19045 -5.901847,-6.57212 l -0.261706,4.85347 h -6.273308 l -0.123498,-75.163562 7.091255,-1.674763 z m 3.55195,38.324624 c 1.254985,0 2.246814,-1.29818 2.975561,-3.8948 0.728802,-2.63069 1.089429,-6.96538 1.081804,-13.005213 -0.0056,-4.455168 -0.166946,-7.898503 -0.483993,-10.329463 -0.302178,-2.465037 -0.737987,-4.170486 -1.307419,-5.116146 -0.554551,-0.979484 -1.205672,-1.469244 -1.953342,-1.469244 -0.792531,0 -1.502039,0.557312 -2.128497,1.671888 -0.626421,1.114513 -1.199889,2.634199 -1.720392,4.558962 l 0.03309,22.677446 c 0.450561,1.58508 0.952845,2.79909 1.506864,3.6421 0.553994,0.84299 1.219429,1.26447 1.996324,1.26447 z" />
      <path
         inkscape:original-d="m 86.162183,77.075263 v 24.621047 q 0,2.60774 0.948266,3.58987 0.982133,0.98213 2.709332,0.98213 1.659466,0 3.318931,-1.04986 1.659466,-1.04987 2.777066,-2.8448 V 77.075263 h 10.701862 v 35.966377 h -9.347196 l -0.474133,-4.19946 q -1.8288,2.6416 -4.809065,3.99626 -2.980265,1.35467 -6.231463,1.35467 -5.215464,0 -7.755463,-3.01413 -2.539999,-3.048 -2.539999,-8.16187 V 77.075263 Z"
         id="path889"
         style="fill:#24ee1f"
         d="m 101.11603,67.370401 0.028,36.817799 c 0.002,2.59705 0.21251,4.38442 0.6316,5.36235 0.434,0.97787 1.03198,1.46678 1.79394,1.46678 0.73208,0 1.46381,-0.52263 2.19523,-1.56794 0.73145,-1.04538 1.34319,-2.46179 1.83521,-4.2493 l -0.0225,-37.829689 h 7.08977 l 0.022,53.759709 h -6.18369 l -0.31729,-6.26929 c -0.80513,2.62931 -1.86447,4.61791 -3.17804,5.96599 -1.31348,1.34799 -2.6871,2.02196 -4.12094,2.02196 -2.30011,0 -4.011565,-1.4996 -5.134497,-4.49913 -1.123138,-3.03372 -1.687179,-7.09628 -1.691992,-12.18833 l -0.03666,-38.790909 z" />
      <path
         inkscape:original-d="m 175.44948,62.783537 v 38.946643 q 0,2.16747 1.2192,3.11573 1.25307,0.9144 3.42054,0.9144 1.38853,0 2.67546,-0.3048 1.28693,-0.33866 2.40453,-0.77893 l 2.57387,7.14586 q -1.8288,0.94827 -4.40267,1.65947 -2.57386,0.7112 -5.99439,0.7112 -6.5024,0 -9.5504,-3.72533 -3.048,-3.7592 -3.048,-10.0584 V 70.098733 h -10.60026 v -7.315196 z"
         id="path891"
         style="fill:#24ee1f"
         d="m 160.28356,45.966548 -0.045,58.272252 c -0.002,2.1586 0.26609,3.70995 0.80323,4.65418 0.55209,0.91046 1.30623,1.36568 2.26243,1.36568 0.61257,0 1.20286,-0.15174 1.77088,-0.45522 0.56806,-0.3372 1.09882,-0.72499 1.59229,-1.16338 l 1.69281,10.67015 c -0.80752,0.94368 -1.77918,1.76936 -2.915,2.47706 -1.13577,0.70767 -2.4579,1.0615 -3.96641,1.0615 -2.86767,0 -4.97236,-1.85345 -6.31427,-5.56088 -1.34215,-3.74186 -2.01147,-8.74899 -2.00777,-15.0224 l 0.0267,-45.340448 h -7.02435 l 0.004,-10.958494 z" />
      <path
         inkscape:original-d="m 164.71376,68.54085 q 0,-2.065866 1.016,-3.759198 1.016,-1.727199 2.74319,-2.743199 1.7272,-1.049866 3.79307,-1.049866 2.09973,0 3.79306,1.049866 1.7272,1.016 2.7432,2.743199 1.016,1.693332 1.016,3.759198 0,2.031999 -1.016,3.759198 -1.016,1.727199 -2.7432,2.743199 -1.69333,1.049866 -3.79306,1.049866 -2.06587,0 -3.79307,-1.049866 -1.72719,-1.016 -2.74319,-2.743199 -1.016,-1.727199 -1.016,-3.759198 z"
         id="path893"
         style="display:inline;opacity:1;fill:#f5431f;fill-opacity:1;stroke:#f5431f;stroke-opacity:1"
         d="m 153.16235,54.591785 c 0.001,-2.062948 0.22677,-3.940083 0.67671,-5.631353 0.45,-1.725247 1.05695,-3.095407 1.82086,-4.110404 0.76398,-1.048885 1.60246,-1.573348 2.51543,-1.573348 0.92793,0 1.76566,0.524463 2.51316,1.573348 0.76245,1.014997 1.36744,2.385157 1.81496,4.110404 0.44751,1.69127 0.67038,3.568405 0.66863,5.631353 -0.002,2.028913 -0.22773,3.905468 -0.67798,5.629708 -0.45021,1.724086 -1.05717,3.093104 -1.82087,4.107129 -0.74872,1.047769 -1.58676,1.571633 -2.51415,1.571633 -0.91243,0 -1.74972,-0.523864 -2.5119,-1.571633 -0.76224,-1.014025 -1.36722,-2.383043 -1.81496,-4.107129 -0.44778,-1.72424 -0.67109,-3.600795 -0.66989,-5.629708 z" />
      <path
         inkscape:original-d="m 217.75634,61.665938 10.70186,1.117599 v 50.258103 h -9.48266 l -0.54186,-3.9624 q -1.49014,2.09974 -3.9624,3.62374 -2.47227,1.49013 -5.9944,1.49013 -4.4704,0 -7.4168,-2.40453 -2.91253,-2.40454 -4.36879,-6.7056 -1.4224,-4.33493 -1.4224,-10.126126 0,-5.55413 1.7272,-9.855195 1.7272,-4.301064 4.94453,-6.739463 3.21733,-2.472266 7.65386,-2.472266 2.40453,0 4.4704,0.846667 2.06586,0.846666 3.69146,2.472265 z m -5.28319,22.047189 q -2.77707,0 -4.4704,2.641598 -1.69334,2.607732 -1.69334,8.669862 0,4.436529 0.7112,6.908793 0.7112,2.4384 1.96427,3.42053 1.25307,0.98214 2.87867,0.98214 1.79493,0 3.25119,-1.1176 1.49014,-1.1176 2.6416,-3.048 V 86.659525 q -1.1176,-1.388533 -2.37066,-2.167466 -1.25307,-0.778932 -2.91253,-0.778932 z"
         id="path895"
         style="fill:#24ee1f"
         d="m 188.32906,44.291785 7.09118,1.674763 -0.12656,75.163562 h -6.2733 l -0.34953,-5.91533 c -0.66043,2.08996 -1.53696,3.89321 -2.62956,5.40983 -1.09248,1.4828 -2.41534,2.22416 -3.96866,2.22416 -1.97153,0 -3.6055,-1.1963 -4.90206,-3.58911 -1.28177,-2.39312 -2.24142,-5.73049 -2.87894,-10.0126 -0.62268,-4.3168 -0.93087,-9.359914 -0.92444,-15.129909 0.006,-5.535421 0.39288,-10.447751 1.16029,-14.736514 0.76757,-4.289717 1.86324,-7.651226 3.28701,-10.08404 1.42399,-2.466917 3.11581,-3.700494 5.0753,-3.700494 1.06202,0 2.04865,0.422467 2.95987,1.267373 0.91117,0.844869 1.7245,2.07831 2.43999,3.70025 z m -3.54862,33.011668 c -1.22618,0 -2.21489,1.317265 -2.96605,3.951524 -0.75101,2.600134 -1.13042,6.921659 -1.13829,12.963416 -0.006,4.420419 0.14667,7.861567 0.45725,10.323977 0.31058,2.42837 0.74163,4.13142 1.29314,5.10933 0.55148,0.97788 1.18578,1.4668 1.90291,1.4668 0.79184,0 1.50977,-0.55636 2.15383,-1.66911 0.65905,-1.11282 1.24402,-2.63041 1.75493,-4.55286 l 0.0348,-23.18566 c -0.49134,-1.384598 -1.01308,-2.465328 -1.56519,-3.242141 -0.55214,-0.776843 -1.19458,-1.165276 -1.9273,-1.165276 z" />
    </g>
  </g>
</svg>
